# xmcd CD database file
#
# Track frame offsets:
#	150
#	38805
#	53932
#	85581
#	110772
#	140031
#	163743
#	194271
#	221268
#	276325
#	302156
#	326481
#	339555
#
# Disc length: 4754 seconds
#
# Revision: 1
# Processed by: cddbd v1.5.2PL0 Copyright (c) Steve Scherf et al.
# Submitted via: CDex 1.70beta2
#
DISCID=c112900d
DTITLE=Sonny Rollins - The Golden Years
DYEAR=2007
DGENRE=Jazz
TTITLE0=Sonnymoon For Two
TTITLE1=Ev'ry Time We Say Goodbye
TTITLE2=Reflections
TTITLE3=Lover
TTITLE4=Way Out West
TTITLE5=B. Swift
TTITLE6=St. Thomas
TTITLE7=Wonderful! Wonderful!
TTITLE8=Tenor Madness
TTITLE9=Compulsion
TTITLE10=It's Only A Paper Moon
TTITLE11=Dance Of The Infidels
TTITLE12=It Could Happen To You
EXTD=YEAR: 2007
EXTT0=
EXTT1=
EXTT2=
EXTT3=
EXTT4=
EXTT5=
EXTT6=
EXTT7=
EXTT8=
EXTT9=
EXTT10=
EXTT11=
EXTT12=
PLAYORDER=
